<svg width="107" height="107" viewBox="0 0 107 107" fill="none" xmlns="http://www.w3.org/2000/svg">
<path d="M92.6402 6.95718C98.0677 8.3456 104 12.006 104 19.7369V84.8979C104 91.5875 96.4268 97.1517 92.6402 99.0976C90.9047 99.3605 86.3924 99.7287 82.2271 99.0976C78.0618 98.4665 73.7599 95.6791 72.1295 94.3643C67.1859 89.7363 54.1432 77.3247 41.5212 64.7027C33.1907 52.4594 38.0502 42.6668 41.5212 39.301C50.3566 31.7278 68.8478 15.6663 72.1295 12.006C75.4112 8.34559 80.2286 7.11495 82.2271 6.95718C83.4367 6.37867 87.2128 5.56876 92.6402 6.95718Z" fill="url(#paint0_linear_101:19)"/>
<path d="M14.3598 98.4889C8.93233 97.1004 3 93.4401 3 85.7091V20.5482C3 13.8585 10.5732 8.29435 14.3598 6.34846C16.0953 6.0855 20.6076 5.71736 24.7729 6.34846C28.9381 6.97956 33.2401 9.76691 34.8705 11.0817C39.8141 15.7098 52.8568 28.1214 65.4788 40.7433C73.8092 52.9866 68.9498 62.7792 65.4788 66.1451C56.6434 73.7182 38.1522 89.7797 34.8705 93.4401C31.5888 97.1004 26.7714 98.3311 24.7729 98.4889C23.5633 99.0674 19.7872 99.8773 14.3598 98.4889Z" fill="#3DD2E9"/>
<defs>
<linearGradient id="paint0_linear_101:19" x1="103.976" y1="52.8918" x2="46.2303" y2="52.8918" gradientUnits="userSpaceOnUse">
<stop stop-color="#3DD2E9"/>
<stop offset="1" stop-color="#288E9D"/>
<stop offset="1" stop-color="#288E9D"/>
</linearGradient>
</defs>
</svg>
